<svg width="193" height="19" viewBox="0 0 193 19" fill="none" xmlns="http://www.w3.org/2000/svg">
<path d="M0 0.330811H11.0851V3.68372H4.00296V7.24191H10.0359V10.5948H4.00296V14.6662H11.3588V18.0191H0V0.330811Z" fill="#DAB46D"/>
<path d="M17.4829 0.330811H21.714L23.8466 8.57623C24.3712 10.515 24.7247 12.2941 25.2607 14.2442H25.3748C25.9108 12.2941 26.2871 10.5036 26.7889 8.57623L28.876 0.330811H32.9702L27.6329 18.0191H22.8316L17.4829 0.330811Z" fill="#DAB46D"/>
<path d="M39.5393 0.330811H50.6244V3.68372H43.5423V7.24191H49.5752V10.5948H43.5423V14.6662H50.8981V18.0191H39.5393V0.330811Z" fill="#DAB46D"/>
<path d="M59.3032 0.330811H65.6783C69.4304 0.330811 72.5096 1.63092 72.5096 5.83916C72.5096 9.91055 69.4304 11.6554 65.6783 11.6554H63.3062V18.0191H59.3032V0.330811ZM65.359 8.485C67.4574 8.485 68.5979 7.58404 68.5979 5.83916C68.5979 4.09428 67.4688 3.50125 65.359 3.50125H63.3176V8.47359H65.359V8.485ZM64.9484 10.6062L67.7197 8.05163L73.3649 18.0305H68.883L64.9484 10.6062Z" fill="#DAB46D"/>
<path d="M83.4692 11.7125L78.1433 0.330811H82.42L84.0052 4.3908C84.4728 5.71372 84.9404 6.94539 85.4422 8.31393H85.5562C86.058 6.94539 86.5598 5.71372 87.0502 4.3908L88.6354 0.330811H92.8094L87.4722 11.7125V18.0191H83.4692V11.7125Z" fill="#DAB46D"/>
<path d="M109.22 0.330811H113.223V7.15068H119.336V0.330811H123.339V18.0191H119.336V10.629H113.223V18.0191H109.22V0.330811Z" fill="#DAB46D"/>
<path d="M131.573 9.10076C131.573 3.3187 134.835 0 139.613 0C144.392 0 147.654 3.34151 147.654 9.10076C147.654 14.8828 144.392 18.3498 139.613 18.3498C134.835 18.3498 131.573 14.8828 131.573 9.10076ZM143.548 9.10076C143.548 5.55397 142.02 3.45556 139.613 3.45556C137.196 3.45556 135.679 5.55397 135.679 9.10076C135.679 12.6475 137.207 14.8942 139.613 14.8942C142.02 14.8942 143.548 12.6475 143.548 9.10076Z" fill="#DAB46D"/>
<path d="M155.865 0.330811H160.233L163.107 8.18848C163.46 9.23769 163.768 10.3667 164.122 11.4502H164.236C164.589 10.3553 164.886 9.22628 165.239 8.18848L168.022 0.330811H172.39V18.0191H168.752V11.53C168.752 9.80791 169.071 7.23051 169.265 5.51984H169.162L167.714 9.70527L165.216 16.4795H162.993L160.484 9.70527L159.069 5.51984H158.955C159.149 7.23051 159.469 9.80791 159.469 11.53V18.0191H155.876V0.330811H155.865Z" fill="#DAB46D"/>
<path d="M181.445 0.330811H192.53V3.68372H185.448V7.24191H191.481V10.5948H185.448V14.6662H192.804V18.0191H181.445V0.330811Z" fill="#DAB46D"/>
</svg>
