<svg width="94" height="97" viewBox="0 0 94 97" fill="none" xmlns="http://www.w3.org/2000/svg">
<path d="M68.8201 11.0252L46.63 0L24.4399 11.0252L0 23.1683L9.6977 96.1246L46.63 81.7876L83.5623 96.1246L93.26 23.1683L68.8201 11.0252ZM74.8986 83.7579L58.4936 77.1903L46.63 72.4393L34.7664 77.1903L18.3613 83.7579L13.1632 30.2669L25.2643 24.4818L37.5332 18.6129L46.63 14.2671L55.7268 18.6129L67.9957 24.4818L80.0968 30.2669L74.8986 83.7579Z" fill="url(#paint0_linear_1146_6315)"/>
<path d="M26.0049 35.6886L26.7734 48.2369L38.1619 43.1645L46.63 39.4056L55.098 43.1645L66.5005 48.2369L67.255 35.6886L46.63 26.1586L26.0049 35.6886Z" fill="url(#paint1_linear_1146_6315)"/>
<path d="M27.3604 57.8227L28.1568 71.0278L38.7628 66.6541L46.63 63.4122L54.4971 66.6541L65.1031 71.0278L65.9136 57.8227L46.63 49.5084L27.3604 57.8227Z" fill="url(#paint2_linear_1146_6315)"/>
<defs>
<linearGradient id="paint0_linear_1146_6315" x1="46.63" y1="0" x2="46.63" y2="96.1246" gradientUnits="userSpaceOnUse">
<stop offset="0.1875" stop-color="#DAB46D"/>
<stop offset="1" stop-color="#B98626"/>
</linearGradient>
<linearGradient id="paint1_linear_1146_6315" x1="46.63" y1="26.1586" x2="46.63" y2="48.2369" gradientUnits="userSpaceOnUse">
<stop offset="0.1875" stop-color="#DAB46D"/>
<stop offset="1" stop-color="#B98626"/>
</linearGradient>
<linearGradient id="paint2_linear_1146_6315" x1="46.637" y1="49.5084" x2="46.637" y2="71.0278" gradientUnits="userSpaceOnUse">
<stop offset="0.1875" stop-color="#DAB46D"/>
<stop offset="1" stop-color="#B98626"/>
</linearGradient>
</defs>
</svg>
