<svg width="24" height="24" viewBox="0 0 24 24" fill="none" xmlns="http://www.w3.org/2000/svg">
<path fill-rule="evenodd" clip-rule="evenodd" d="M18.51 9.70064C18.29 9.67965 18.08 9.58065 17.94 9.41065C17.8 9.24064 17.731 9.01964 17.75 8.79064V8.75964C17.75 8.06065 17.321 7.42965 16.68 7.18964C16.26 7.04065 16.04 6.58065 16.18 6.16065C16.33 5.74064 16.78 5.51964 17.19 5.66065C18.481 6.15065 19.33 7.41964 19.3 8.82064V8.93964C19.27 9.36064 18.92 9.68964 18.51 9.70064ZM15.85 2.50065C14.46 2.49065 13.111 2.95065 12 3.79965C11.91 3.73065 11.8 3.66965 11.7 3.61065C11.6 3.54965 11.42 3.40065 11.27 3.32065L10.89 3.15065C10.69 3.04065 10.481 2.96065 10.26 2.88965C10.24 2.87065 10.21 2.84965 10.17 2.83065H10.111C9.52002 2.62965 8.91002 2.51965 8.28002 2.50065H8.17002C7.89002 2.50065 7.61102 2.51965 7.33002 2.56065H7.21002C6.91002 2.59965 6.61102 2.66965 6.32102 2.76965C2.59002 3.99065 1.26002 8.04065 2.39002 11.5806C3.03002 13.3896 4.06102 15.0306 5.40102 16.3796C7.35002 18.2596 9.48102 19.9196 11.77 21.3396L12.03 21.5006L12.28 21.3496C14.561 19.9196 16.68 18.2596 18.611 16.3896C19.96 15.0406 20.99 13.3896 21.62 11.5806C22.731 8.04065 21.401 3.99065 17.71 2.79065C17.111 2.58965 16.481 2.50065 15.85 2.50065Z" fill="#FDBB12"/>
</svg>
