<svg width="31" height="20" viewBox="0 0 31 20" fill="none" xmlns="http://www.w3.org/2000/svg">
<path d="M15.7384 19.326C15.7384 14.6189 15.7384 9.94667 15.7384 5.21399C15.8173 5.35632 15.8667 5.44438 15.9152 5.53244C16.5544 6.69155 17.1941 7.85014 17.8333 9.00925C17.8941 9.11983 17.9376 9.21608 18.1071 9.19202C19.6177 8.97699 21.1298 8.77425 22.6413 8.56946C24.0476 8.37952 25.4538 8.19163 26.8919 7.99861C26.9228 11.2276 26.9531 14.4464 26.984 17.6846C23.2252 18.2329 19.4899 18.7782 15.7384 19.326ZM14.723 19.2554C14.629 19.2502 14.5486 19.2518 14.4698 19.241C13.0547 19.0495 11.6392 18.8565 10.2241 18.663C8.15414 18.3804 6.08469 18.0942 4.01327 17.8203C3.83449 17.7967 3.78404 17.7404 3.78257 17.5566C3.76249 14.4766 3.73604 11.3966 3.71204 8.31706C3.71155 8.24436 3.72135 8.17217 3.72722 8.0877C5.00563 8.25409 6.26004 8.41741 7.51396 8.58021C9.02748 8.77681 10.541 8.97034 12.0535 9.17308C12.223 9.1956 12.3141 9.15209 12.4062 8.99696C13.1257 7.78819 13.8556 6.58608 14.5829 5.38192C14.6187 5.32253 14.6618 5.26775 14.722 5.18071C14.723 9.89803 14.723 14.5693 14.723 19.2554ZM15.2608 2.01979C15.1918 2.14011 15.1442 2.22561 15.0938 2.30957C14.0549 4.03287 13.016 5.75617 11.9761 7.47947C11.696 7.94383 11.6965 7.93154 11.1758 7.86192C9.53394 7.64177 7.8916 7.43083 6.24877 7.21785C4.48496 6.989 2.72115 6.7622 0.957335 6.53283C0.671774 6.49597 0.387196 6.45245 0.078125 6.40894C0.1418 6.29989 0.182941 6.22719 0.226046 6.15551C1.29824 4.35337 2.37779 2.55583 3.43579 0.74447C3.58812 0.483363 3.74241 0.44087 4.00544 0.478756C5.8148 0.737302 7.62613 0.981513 9.43696 1.2288C11.3605 1.49041 13.2844 1.75101 15.2608 2.01979ZM30.0781 6.34289C30.012 6.36235 29.9669 6.3818 29.9209 6.38795C29.4198 6.45757 28.9183 6.52567 28.4167 6.59325C25.1976 7.02689 21.9781 7.45848 18.7596 7.8998C18.5901 7.92284 18.5161 7.88086 18.4353 7.73341C17.4371 5.91437 16.4325 4.09892 15.4298 2.28244C15.3867 2.20462 15.3505 2.12321 15.3108 2.04334C15.3495 2.02235 15.3627 2.01007 15.3769 2.00802C17.2504 1.73309 19.124 1.45867 20.998 1.18477C22.8397 0.914956 24.6819 0.650779 26.5221 0.372777C26.7494 0.338475 26.8708 0.392744 26.985 0.607261C27.8353 2.20001 28.6988 3.78559 29.5575 5.37373C29.7294 5.69064 29.8989 6.00909 30.0781 6.34289Z" fill="#FFA610"/>
<path d="M15.7383 19.3254C19.4898 18.7776 23.2256 18.2324 26.9839 17.6835C26.953 14.4453 26.9222 11.2265 26.8918 7.99751C25.4537 8.19053 24.047 8.37791 22.6412 8.56836C21.1297 8.77264 19.6176 8.97589 18.107 9.19092C17.938 9.21498 17.894 9.11873 17.8332 9.00815C17.194 7.84904 16.5548 6.69044 15.9151 5.53134C15.8666 5.44328 15.8176 5.35522 15.7383 5.21289C15.7383 9.94608 15.7383 14.6183 15.7383 19.3254Z" fill="#FFA610"/>
<path d="M14.7231 19.2558C14.7231 14.5697 14.7231 9.89845 14.7231 5.18164C14.6629 5.26868 14.6198 5.32346 14.584 5.38285C13.8567 6.58649 13.1264 7.78861 12.4073 8.99789C12.3152 9.15301 12.2241 9.19653 12.0546 9.174C10.5421 8.97126 9.0281 8.77774 7.51507 8.58114C6.26066 8.41833 5.00674 8.25501 3.72833 8.08862C3.72246 8.17259 3.71266 8.24529 3.71315 8.31799C3.73715 11.398 3.7636 14.478 3.78368 17.5576C3.78466 17.7414 3.8356 17.7977 4.01439 17.8212C6.08531 18.0951 8.15477 18.3813 10.2252 18.6639C11.6403 18.8569 13.0553 19.05 14.4709 19.242C14.5488 19.2522 14.6296 19.2512 14.7231 19.2558Z" fill="#FFA610"/>
<path d="M15.2607 2.01967C13.2844 1.75088 11.3604 1.49029 9.43688 1.22764C7.62604 0.980361 5.81472 0.73615 4.00536 0.477604C3.74184 0.44023 3.58804 0.482212 3.43571 0.743318C2.37771 2.55468 1.29816 4.35221 0.225966 6.15436C0.183352 6.22603 0.141721 6.29873 0.0780458 6.40778C0.387116 6.4513 0.671695 6.49482 0.957255 6.53168C2.72107 6.76053 4.48488 6.98734 6.24869 7.2167C7.89103 7.42968 9.53386 7.64113 11.1757 7.86076C11.6964 7.93039 11.6959 7.94319 11.9761 7.47832C13.0159 5.75553 14.0548 4.03223 15.0937 2.30842C15.1442 2.22548 15.1912 2.13947 15.2607 2.01967Z" fill="#FFA610"/>
<path d="M30.0781 6.34243C29.8989 6.00862 29.7294 5.69017 29.5575 5.37275C28.6988 3.78461 27.8353 2.19954 26.985 0.606284C26.8703 0.391768 26.7494 0.337499 26.5221 0.371801C24.6819 0.649802 22.8397 0.914492 20.9985 1.18379C19.125 1.4577 17.2509 1.73211 15.3774 2.00704C15.3632 2.00909 15.35 2.02138 15.3113 2.04237C15.3509 2.12224 15.3872 2.20364 15.4303 2.28146C16.4329 4.09794 17.4375 5.91339 18.4358 7.73243C18.5166 7.87988 18.5906 7.92238 18.76 7.89883C21.9781 7.4575 25.1976 7.02591 28.4172 6.59227C28.9187 6.52469 29.4198 6.4566 29.9214 6.38697C29.9669 6.38134 30.012 6.36188 30.0781 6.34243Z" fill="#FFA610"/>
</svg>
