<svg width="31" height="19" viewBox="0 0 31 19" fill="none" xmlns="http://www.w3.org/2000/svg">
<path d="M15.7384 18.9637C15.7384 14.2566 15.7384 9.58436 15.7384 4.85169C15.8173 4.99402 15.8667 5.08208 15.9152 5.17013C16.5544 6.32924 17.1941 7.48784 17.8333 8.64694C17.8941 8.75753 17.9376 8.85378 18.1071 8.82972C19.6177 8.61469 21.1298 8.41195 22.6413 8.20716C24.0476 8.01721 25.4538 7.82932 26.8919 7.63631C26.9228 10.8653 26.9531 14.0841 26.984 17.3223C23.2252 17.8706 19.4899 18.4159 15.7384 18.9637ZM14.723 18.8931C14.629 18.8879 14.5486 18.8895 14.4698 18.8787C13.0547 18.6872 11.6392 18.4942 10.2241 18.3007C8.15414 18.0181 6.08469 17.7319 4.01327 17.458C3.83449 17.4344 3.78404 17.3781 3.78257 17.1943C3.76249 14.1143 3.73604 11.0343 3.71204 7.95475C3.71155 7.88205 3.72135 7.80987 3.72722 7.72539C5.00563 7.89178 6.26004 8.0551 7.51396 8.21791C9.02748 8.41451 10.541 8.60803 12.0535 8.81077C12.223 8.8333 12.3141 8.78978 12.4062 8.63465C13.1257 7.42589 13.8556 6.22377 14.5829 5.01961C14.6187 4.96023 14.6618 4.90544 14.722 4.81841C14.723 9.53573 14.723 14.207 14.723 18.8931ZM15.2608 1.65749C15.1918 1.7778 15.1442 1.8633 15.0938 1.94727C14.0549 3.67057 13.016 5.39387 11.9761 7.11717C11.696 7.58153 11.6965 7.56924 11.1758 7.49961C9.53394 7.27946 7.8916 7.06853 6.24877 6.85555C4.48496 6.6267 2.72115 6.39989 0.957335 6.17053C0.671774 6.13367 0.387196 6.09015 0.078125 6.04663C0.1418 5.93758 0.182941 5.86488 0.226046 5.79321C1.29824 3.99106 2.37779 2.19352 3.43579 0.382165C3.58812 0.121059 3.74241 0.078565 4.00544 0.116451C5.8148 0.374997 7.62613 0.619208 9.43696 0.866491C11.3605 1.12811 13.2844 1.3887 15.2608 1.65749ZM30.0781 5.98059C30.012 6.00004 29.9669 6.0195 29.9209 6.02564C29.4198 6.09527 28.9183 6.16336 28.4167 6.23094C25.1976 6.66458 21.9781 7.09618 18.7596 7.5375C18.5901 7.56054 18.5161 7.51855 18.4353 7.37111C17.4371 5.55207 16.4325 3.73661 15.4298 1.92013C15.3867 1.84231 15.3505 1.76091 15.3108 1.68104C15.3495 1.66005 15.3627 1.64776 15.3769 1.64571C17.2504 1.37078 19.124 1.09637 20.998 0.822461C22.8397 0.552652 24.6819 0.288474 26.5221 0.0104727C26.7494 -0.0238295 26.8708 0.0304396 26.985 0.244956C27.8353 1.8377 28.6988 3.42328 29.5575 5.01142C29.7294 5.32833 29.8989 5.64678 30.0781 5.98059Z" fill="white"/>
<path d="M15.7383 18.9641C19.4898 18.4163 23.2256 17.871 26.9839 17.3222C26.953 14.084 26.9222 10.8652 26.8918 7.63618C25.4537 7.8292 24.047 8.01658 22.6412 8.20703C21.1297 8.41131 19.6176 8.61456 18.107 8.82959C17.938 8.85365 17.894 8.7574 17.8332 8.64682C17.194 7.48771 16.5548 6.32912 15.9151 5.17001C15.8666 5.08195 15.8176 4.99389 15.7383 4.85156C15.7383 9.58475 15.7383 14.257 15.7383 18.9641Z" fill="white"/>
<path d="M14.7231 18.8925C14.7231 14.2064 14.7231 9.53516 14.7231 4.81836C14.6629 4.90539 14.6198 4.96018 14.584 5.01956C13.8567 6.22321 13.1264 7.42532 12.4073 8.6346C12.3152 8.78973 12.2241 8.83325 12.0546 8.81072C10.5421 8.60798 9.0281 8.41446 7.51507 8.21786C6.26066 8.05505 5.00674 7.89173 3.72833 7.72534C3.72246 7.8093 3.71266 7.882 3.71315 7.9547C3.73715 11.0347 3.7636 14.1148 3.78368 17.1943C3.78466 17.3781 3.8356 17.4344 4.01439 17.4579C6.08531 17.7318 8.15477 18.018 10.2252 18.3007C11.6403 18.4937 13.0553 18.6867 14.4709 18.8787C14.5488 18.8889 14.6296 18.8879 14.7231 18.8925Z" fill="white"/>
<path d="M15.2607 1.65736C13.2844 1.38858 11.3604 1.12798 9.43688 0.865339C7.62604 0.618056 5.81472 0.373845 4.00536 0.115299C3.74184 0.0779252 3.58804 0.119907 3.43571 0.381013C2.37771 2.19237 1.29816 3.98991 0.225966 5.79205C0.183352 5.86373 0.141721 5.93643 0.0780458 6.04548C0.387116 6.089 0.671695 6.13252 0.957255 6.16938C2.72107 6.39823 4.48488 6.62503 6.24869 6.8544C7.89103 7.06738 9.53386 7.27882 11.1757 7.49846C11.6964 7.56809 11.6959 7.58089 11.9761 7.11602C13.0159 5.39323 14.0548 3.66993 15.0937 1.94611C15.1442 1.86317 15.1912 1.77716 15.2607 1.65736Z" fill="white"/>
<path d="M30.0781 5.98012C29.8989 5.64632 29.7294 5.32787 29.5575 5.01045C28.6988 3.42231 27.8353 1.83724 26.985 0.24398C26.8703 0.029463 26.7494 -0.0248061 26.5221 0.0094961C24.6819 0.287497 22.8397 0.552187 20.9985 0.821485C19.125 1.09539 17.2509 1.36981 15.3774 1.64474C15.3632 1.64679 15.35 1.65907 15.3113 1.68006C15.3509 1.75993 15.3872 1.84133 15.4303 1.91915C16.4329 3.73563 17.4375 5.55109 18.4358 7.37013C18.5166 7.51758 18.5906 7.56007 18.76 7.53652C21.9781 7.0952 25.1976 6.66361 28.4172 6.22997C28.9187 6.16239 29.4198 6.09429 29.9214 6.02466C29.9669 6.01903 30.012 5.99958 30.0781 5.98012Z" fill="white"/>
</svg>
