<svg width="21" height="20" viewBox="0 0 21 20" fill="none" xmlns="http://www.w3.org/2000/svg">
<g clip-path="url(#clip0_1198_12778)">
<path d="M0.751953 15.625C0.751953 11.0418 0.751953 6.45863 0.751953 1.87544C0.76291 1.85248 0.779084 1.83109 0.783779 1.80708C0.99352 0.714379 1.84292 0.0020873 2.9558 0.00156548C8.14924 -0.000521825 13.3427 -0.000521825 18.5361 0.00156548C19.817 0.0020873 20.7499 0.938242 20.7509 2.22298C20.753 6.5703 20.7525 10.9176 20.7493 15.265C20.7493 15.4518 20.7327 15.6438 20.6893 15.8254C20.4473 16.8388 19.5979 17.4895 18.5178 17.4921C16.9104 17.4958 15.3029 17.4947 13.6954 17.49C13.5618 17.4895 13.4658 17.525 13.3708 17.621C12.7119 18.2874 12.0503 18.9511 11.383 19.6092C11.2374 19.7527 11.0668 19.8701 10.9077 20C10.8033 20 10.6995 20 10.5952 20C10.4407 19.8748 10.2753 19.7615 10.1345 19.6227C9.47186 18.9694 8.81289 18.3119 8.16124 17.6476C8.04489 17.5292 7.92906 17.49 7.76888 17.49C6.17444 17.4947 4.57999 17.4952 2.98502 17.4921C1.97283 17.49 1.15891 16.9139 0.857867 15.9945C0.818736 15.8729 0.787432 15.7482 0.751953 15.625Z" fill="#FFA610"/>
<path d="M7.10089 13.1332C7.19272 12.5942 7.28193 12.0687 7.3722 11.5432C7.45463 11.0626 7.53602 10.582 7.62368 10.1019C7.64559 9.98085 7.61585 9.89892 7.52454 9.81126C6.82593 9.13862 6.13149 8.46129 5.43861 7.78292C5.13548 7.48652 5.13913 7.07115 5.45687 6.85564C5.56435 6.78258 5.70627 6.74449 5.83775 6.72466C6.77636 6.58324 7.71602 6.44966 8.65621 6.31764C8.78351 6.29989 8.85812 6.24823 8.91656 6.12769C9.3303 5.27346 9.75604 4.4255 10.1708 3.57179C10.2945 3.31714 10.4646 3.13554 10.762 3.13972C11.05 3.14389 11.2138 3.32392 11.3338 3.57127C11.7371 4.40149 12.1545 5.22493 12.551 6.05829C12.635 6.23414 12.742 6.30302 12.9256 6.32807C13.8533 6.45488 14.7799 6.59003 15.706 6.72622C16.1448 6.79093 16.3911 7.1416 16.2481 7.51157C16.2032 7.62742 16.1124 7.73335 16.0222 7.82258C15.3497 8.48478 14.674 9.14332 13.9931 9.79769C13.8929 9.89423 13.8585 9.98502 13.883 10.1217C14.0505 11.0626 14.2107 12.005 14.3756 12.9464C14.4215 13.2089 14.3823 13.4442 14.1533 13.6081C13.9263 13.7703 13.6947 13.7411 13.4562 13.6143C12.6069 13.1629 11.7528 12.7194 10.9039 12.267C10.7933 12.208 10.7108 12.2101 10.6007 12.2685C9.73987 12.7267 8.87638 13.1796 8.01185 13.6305C7.66959 13.809 7.31011 13.7036 7.16663 13.3847C7.12959 13.3049 7.12019 13.212 7.10089 13.1332ZM14.3359 7.69317C14.3547 7.70621 14.374 7.71874 14.3928 7.73178C14.362 7.72343 14.3312 7.71143 14.2999 7.70673C13.6436 7.61124 12.9882 7.51001 12.3308 7.42495C12.0408 7.3879 11.8383 7.26631 11.71 6.99496C11.435 6.41365 11.1439 5.83964 10.8585 5.26303C10.8287 5.20302 10.7922 5.14614 10.7453 5.06317C10.414 5.73267 10.0936 6.37034 9.7837 7.01323C9.66787 7.25327 9.48891 7.38164 9.22908 7.41712C8.75221 7.48235 8.27638 7.55175 7.80055 7.62063C7.56733 7.65455 7.33463 7.6916 7.04193 7.737C7.1228 7.80118 7.16089 7.82675 7.19272 7.85754C7.67794 8.32927 8.16159 8.80309 8.64786 9.27378C8.82003 9.44076 8.89204 9.63279 8.84664 9.87283C8.79186 10.1598 8.74751 10.4494 8.69847 10.7375C8.62595 11.1654 8.55395 11.5933 8.47516 12.0582C8.57586 12.0087 8.64525 11.9763 8.71256 11.9408C9.2823 11.6418 9.85413 11.3465 10.4202 11.0412C10.6482 10.918 10.8601 10.9191 11.0865 11.0407C11.5441 11.287 12.0063 11.5255 12.467 11.7665C12.6434 11.8589 12.8202 11.9497 13.0117 12.0494C13.0117 11.9904 13.0164 11.958 13.0112 11.9267C12.9053 11.3052 12.815 10.6801 12.6846 10.0638C12.6058 9.6928 12.6898 9.4251 12.9642 9.15689C13.4416 8.69142 13.8804 8.18368 14.3359 7.69317Z" fill="#262F39"/>
</g>
<defs>
<clipPath id="clip0_1198_12778">
<rect width="20" height="20" fill="white" transform="translate(0.751953)"/>
</clipPath>
</defs>
</svg>
