<svg width="21" height="21" viewBox="0 0 21 21" fill="none" xmlns="http://www.w3.org/2000/svg">
<g clip-path="url(#clip0_1198_12940)">
<path d="M0.751953 15.9873C0.751953 11.4041 0.751953 6.82094 0.751953 2.23774C0.76291 2.21478 0.779084 2.19339 0.783779 2.16939C0.99352 1.07668 1.84292 0.364392 2.9558 0.36387C8.14924 0.361783 13.3427 0.361783 18.5361 0.36387C19.817 0.364392 20.7499 1.30055 20.7509 2.58528C20.753 6.93261 20.7525 11.2799 20.7493 15.6273C20.7493 15.8141 20.7327 16.0061 20.6893 16.1877C20.4473 17.2011 19.5979 17.8518 18.5178 17.8544C16.9104 17.8581 15.3029 17.857 13.6954 17.8523C13.5618 17.8518 13.4658 17.8873 13.3708 17.9833C12.7119 18.6497 12.0503 19.3134 11.383 19.9715C11.2374 20.115 11.0668 20.2324 10.9077 20.3623C10.8033 20.3623 10.6995 20.3623 10.5952 20.3623C10.4407 20.2371 10.2753 20.1238 10.1345 19.985C9.47186 19.3317 8.81289 18.6742 8.16124 18.0099C8.04489 17.8915 7.92906 17.8523 7.76888 17.8523C6.17444 17.857 4.57999 17.8575 2.98502 17.8544C1.97283 17.8523 1.15891 17.2762 0.857867 16.3568C0.818736 16.2352 0.787432 16.1105 0.751953 15.9873Z" fill="white"/>
<path d="M7.10089 13.4955C7.19272 12.9565 7.28193 12.431 7.3722 11.9055C7.45463 11.4249 7.53602 10.9443 7.62368 10.4642C7.64559 10.3432 7.61585 10.2612 7.52454 10.1736C6.82593 9.50093 6.13149 8.8236 5.43861 8.14523C5.13548 7.84883 5.13913 7.43346 5.45687 7.21794C5.56435 7.14489 5.70627 7.10679 5.83775 7.08696C6.77636 6.94555 7.71602 6.81196 8.65621 6.67994C8.78351 6.6622 8.85812 6.61054 8.91656 6.49C9.3303 5.63577 9.75604 4.7878 10.1708 3.93409C10.2945 3.67944 10.4646 3.49785 10.762 3.50202C11.05 3.5062 11.2138 3.68623 11.3338 3.93357C11.7371 4.7638 12.1545 5.58724 12.551 6.42059C12.635 6.59645 12.742 6.66533 12.9256 6.69038C13.8533 6.81718 14.7799 6.95233 15.706 7.08853C16.1448 7.15324 16.3911 7.5039 16.2481 7.87388C16.2032 7.98972 16.1124 8.09565 16.0222 8.18488C15.3497 8.84708 14.674 9.50562 13.9931 10.16C13.8929 10.2565 13.8585 10.3473 13.883 10.484C14.0505 11.4249 14.2107 12.3673 14.3756 13.3087C14.4215 13.5712 14.3823 13.8065 14.1533 13.9704C13.9263 14.1326 13.6947 14.1034 13.4562 13.9766C12.6069 13.5252 11.7528 13.0817 10.9039 12.6293C10.7933 12.5703 10.7108 12.5724 10.6007 12.6308C9.73987 13.089 8.87638 13.5419 8.01185 13.9928C7.66959 14.1713 7.31011 14.0659 7.16663 13.747C7.12959 13.6672 7.12019 13.5743 7.10089 13.4955ZM14.3359 8.05547C14.3547 8.06852 14.374 8.08104 14.3928 8.09409C14.362 8.08574 14.3312 8.07374 14.2999 8.06904C13.6436 7.97355 12.9882 7.87231 12.3308 7.78725C12.0408 7.7502 11.8383 7.62862 11.71 7.35727C11.435 6.77596 11.1439 6.20195 10.8585 5.62533C10.8287 5.56532 10.7922 5.50844 10.7453 5.42547C10.414 6.09497 10.0936 6.73264 9.7837 7.37553C9.66787 7.61557 9.48891 7.74394 9.22908 7.77943C8.75221 7.84465 8.27638 7.91406 7.80055 7.98294C7.56733 8.01686 7.33463 8.05391 7.04193 8.09931C7.1228 8.16349 7.16089 8.18906 7.19272 8.21985C7.67794 8.69158 8.16159 9.16539 8.64786 9.63608C8.82003 9.80306 8.89204 9.9951 8.84664 10.2351C8.79186 10.5221 8.74751 10.8118 8.69847 11.0998C8.62595 11.5277 8.55395 11.9556 8.47516 12.4205C8.57586 12.371 8.64525 12.3386 8.71256 12.3031C9.2823 12.0041 9.85413 11.7088 10.4202 11.4035C10.6482 11.2804 10.8601 11.2814 11.0865 11.403C11.5441 11.6493 12.0063 11.8878 12.467 12.1288C12.6434 12.2212 12.8202 12.312 13.0117 12.4117C13.0117 12.3527 13.0164 12.3204 13.0112 12.289C12.9053 11.6675 12.815 11.0424 12.6846 10.4261C12.6058 10.0551 12.6898 9.78741 12.9642 9.51919C13.4416 9.05372 13.8804 8.54599 14.3359 8.05547Z" fill="#262F39"/>
</g>
<defs>
<clipPath id="clip0_1198_12940">
<rect width="20" height="20" fill="white" transform="translate(0.751953 0.362305)"/>
</clipPath>
</defs>
</svg>
