<svg width="40" height="40" viewBox="0 0 40 40" fill="none" xmlns="http://www.w3.org/2000/svg">
<circle cx="20" cy="20" r="20" fill="#252C35"/>
<path fill-rule="evenodd" clip-rule="evenodd" d="M24.682 15.589C24.8546 15.5445 25.0377 15.5693 25.1921 15.6581C25.3466 15.747 25.4601 15.8929 25.5082 16.0645C25.7344 16.8741 25.7702 17.7251 25.6127 18.5509C25.4553 19.3767 25.1089 20.1549 24.6007 20.8245C24.0925 21.4942 23.4362 22.0371 22.6832 22.411C21.9303 22.7848 21.101 22.9793 20.2603 22.9793C19.4197 22.9793 18.5904 22.7848 17.8374 22.411C17.0845 22.0371 16.4282 21.4942 15.92 20.8245C15.4117 20.1549 15.0654 19.3767 14.9079 18.5509C14.7505 17.7251 14.7863 16.8741 15.0124 16.0645C15.0606 15.8929 15.1741 15.747 15.3285 15.6581C15.483 15.5693 15.6661 15.5445 15.8386 15.589C18.3737 16.2429 22.147 16.2429 24.682 15.589ZM16.201 17.0684C16.1359 17.6404 16.1923 18.2196 16.3667 18.7683C16.541 19.3169 16.8293 19.8225 17.2126 20.252C17.596 20.6814 18.0657 21.025 18.5911 21.2603C19.1165 21.4956 19.6857 21.6172 20.2614 21.6172C20.837 21.6172 21.4062 21.4956 21.9316 21.2603C22.457 21.025 22.9267 20.6814 23.3101 20.252C23.6934 19.8225 23.9817 19.3169 24.156 18.7683C24.3304 18.2196 24.3868 17.6404 24.3217 17.0684C21.8582 17.5656 18.6638 17.5656 16.201 17.0684Z" fill="white"/>
<path fill-rule="evenodd" clip-rule="evenodd" d="M16.8543 23.318C12.7766 24.0297 8 25.8469 8 28.433V32.5196H32.5196V28.433C32.5196 25.8469 27.7431 24.0297 23.6653 23.318V26.3897H16.8543V23.318ZM12.7677 32.5196V26.3897H14.1299V32.5196H12.7677ZM27.0708 26.3897V32.5196H28.433V26.3897H27.0708ZM20.9409 8.0395V11.0513C20.9409 11.232 20.8692 11.4052 20.7414 11.5329C20.6137 11.6607 20.4405 11.7324 20.2598 11.7324C20.0792 11.7324 19.9059 11.6607 19.7782 11.5329C19.6505 11.4052 19.5787 11.232 19.5787 11.0513V8C18.8755 8.03717 18.1842 8.19618 17.5354 8.46996V12.4135C17.5354 12.5942 17.4637 12.7674 17.3359 12.8951C17.2082 13.0229 17.0349 13.0946 16.8543 13.0946C16.6737 13.0946 16.5004 13.0229 16.3727 12.8951C16.245 12.7674 16.1732 12.5942 16.1732 12.4135V9.31793C15.2401 10.1203 14.702 11.161 14.5311 12.073C14.5252 12.1047 14.5198 12.1365 14.5147 12.1683L14.5011 12.182C14.4405 12.6104 14.4739 12.9632 14.561 13.2057C14.6169 13.3744 14.6046 13.5582 14.5267 13.718C14.4489 13.8778 14.3117 14.0008 14.1444 14.0608C13.9771 14.1208 13.793 14.113 13.6313 14.0391C13.4697 13.9653 13.3433 13.8311 13.2792 13.6654C13.2677 13.6338 13.2568 13.602 13.2465 13.57C9.29137 18.7341 31.2501 18.7314 27.2663 13.5612C27.256 13.5945 27.2451 13.6277 27.2336 13.6606C27.1708 13.827 27.0454 13.9622 26.8843 14.0373C26.7232 14.1125 26.539 14.1217 26.3712 14.0629C26.2034 14.0041 26.0652 13.882 25.9862 13.7227C25.9072 13.5635 25.8936 13.3796 25.9484 13.2104C26.0464 12.9284 26.075 12.577 26.0219 12.1888C26.0179 12.1858 26.0138 12.1828 26.0097 12.1799C25.8625 11.2591 25.3027 10.2408 24.3464 9.43848V12.4135C24.3464 12.5942 24.2747 12.7674 24.1469 12.8951C24.0192 13.0229 23.846 13.0946 23.6653 13.0946C23.4847 13.0946 23.3114 13.0229 23.1837 12.8951C23.056 12.7674 22.9842 12.5942 22.9842 12.4135V8.58711C22.7183 8.46765 22.4445 8.36638 22.1649 8.28402C21.7646 8.16739 21.3552 8.08535 20.9409 8.03882V8.0395Z" fill="white"/>
</svg>
