<svg width="101" height="101" viewBox="0 0 101 101" fill="none" xmlns="http://www.w3.org/2000/svg">
<circle cx="50.5" cy="50.5" r="50.5" fill="#252C35"/>
<path d="M62.5146 52.861L52.383 47.9523L48.0988 45.8765C49.9698 44.6792 51.4895 42.8314 52.4839 40.6057C53.3134 38.7502 53.7424 36.736 53.7423 34.6982C53.7423 33.4976 53.5547 32.3575 53.2933 31.2575C52.0188 25.9269 47.9202 22 43 22C38.173 22 34.1365 25.787 32.783 30.9657C32.4706 32.1538 32.2558 33.3892 32.2558 34.6982C32.2558 36.9712 32.7785 39.0904 33.6668 40.9336C34.6936 43.0719 36.2159 44.8349 38.0688 45.9685L33.9657 47.9089L23.5055 52.857C22.5972 53.2894 22 54.3303 22 55.4928V67.1665C22 68.7311 23.0733 69.9993 24.3983 69.9993H39.934V61.0612C39.9362 60.969 39.9628 60.8791 40.011 60.801L40.0045 60.797L42.5491 56.3207L42.5555 56.3247C42.6461 56.167 42.8072 56.0552 43 56.0552C43.1928 56.0552 43.3539 56.1663 43.4445 56.3247L43.4471 56.3227L43.4703 56.3641C43.4736 56.3707 43.4781 56.3759 43.4807 56.3825L45.9916 60.799L45.9884 60.801C46.0366 60.8793 46.0632 60.9694 46.0653 61.0618V70H61.601C62.926 70 64 68.7318 64 67.1672V55.4928C64.0019 54.3343 63.4145 53.3032 62.5146 52.861ZM45.9903 49.8678L45.9968 49.8717L43.4516 54.348L43.4451 54.3441C43.401 54.4247 43.3366 54.4921 43.2585 54.5393C43.1805 54.5865 43.0915 54.6119 43.0006 54.6129C42.9098 54.6119 42.8208 54.5865 42.7428 54.5393C42.6647 54.4921 42.6003 54.4247 42.5562 54.3441L42.5529 54.3461L42.5271 54.3007C42.5251 54.2961 42.5212 54.2922 42.5193 54.2876L40.0084 49.8698L40.011 49.8678C39.9627 49.7894 39.9361 49.6993 39.934 49.6069C39.934 49.3145 40.1676 49.0773 40.4555 49.0773H45.5445C45.8324 49.0773 46.066 49.3145 46.066 49.6069C46.0649 49.6993 46.0387 49.7896 45.9903 49.8678Z" fill="white"/>
<ellipse cx="68.5" cy="58" rx="16.5" ry="18" fill="#252C35"/>
<g clip-path="url(#clip0_1146_6521)">
<path d="M81.3304 68.125H80.2143V41.4062C80.2143 40.6296 79.6147 40 78.875 40H60.125C59.3853 40 58.7857 40.6296 58.7857 41.4062V68.125H57.6696C57.2998 68.125 57 68.4398 57 68.8281V70H82V68.8281C82 68.4398 81.7002 68.125 81.3304 68.125ZM64.1429 44.4531C64.1429 44.0648 64.4427 43.75 64.8125 43.75H67.0446C67.4145 43.75 67.7143 44.0648 67.7143 44.4531V46.7969C67.7143 47.1852 67.4145 47.5 67.0446 47.5H64.8125C64.4427 47.5 64.1429 47.1852 64.1429 46.7969V44.4531ZM64.1429 50.0781C64.1429 49.6898 64.4427 49.375 64.8125 49.375H67.0446C67.4145 49.375 67.7143 49.6898 67.7143 50.0781V52.4219C67.7143 52.8102 67.4145 53.125 67.0446 53.125H64.8125C64.4427 53.125 64.1429 52.8102 64.1429 52.4219V50.0781ZM67.0446 58.75H64.8125C64.4427 58.75 64.1429 58.4352 64.1429 58.0469V55.7031C64.1429 55.3148 64.4427 55 64.8125 55H67.0446C67.4145 55 67.7143 55.3148 67.7143 55.7031V58.0469C67.7143 58.4352 67.4145 58.75 67.0446 58.75ZM71.2857 68.125H67.7143V63.2031C67.7143 62.8148 68.0141 62.5 68.3839 62.5H70.6161C70.9859 62.5 71.2857 62.8148 71.2857 63.2031V68.125ZM74.8571 58.0469C74.8571 58.4352 74.5573 58.75 74.1875 58.75H71.9554C71.5855 58.75 71.2857 58.4352 71.2857 58.0469V55.7031C71.2857 55.3148 71.5855 55 71.9554 55H74.1875C74.5573 55 74.8571 55.3148 74.8571 55.7031V58.0469ZM74.8571 52.4219C74.8571 52.8102 74.5573 53.125 74.1875 53.125H71.9554C71.5855 53.125 71.2857 52.8102 71.2857 52.4219V50.0781C71.2857 49.6898 71.5855 49.375 71.9554 49.375H74.1875C74.5573 49.375 74.8571 49.6898 74.8571 50.0781V52.4219ZM74.8571 46.7969C74.8571 47.1852 74.5573 47.5 74.1875 47.5H71.9554C71.5855 47.5 71.2857 47.1852 71.2857 46.7969V44.4531C71.2857 44.0648 71.5855 43.75 71.9554 43.75H74.1875C74.5573 43.75 74.8571 44.0648 74.8571 44.4531V46.7969Z" fill="white"/>
</g>
<defs>
<clipPath id="clip0_1146_6521">
<rect width="25" height="30" fill="white" transform="translate(57 40)"/>
</clipPath>
</defs>
</svg>
