<svg width="31" height="31" viewBox="0 0 31 31" fill="none" xmlns="http://www.w3.org/2000/svg">
<path d="M20.6667 14.2082H19.375V3.87484C19.375 2.454 18.2125 1.2915 16.7917 1.2915H14.2083C12.7875 1.2915 11.625 2.454 11.625 3.87484V14.2082H10.3333C6.76833 14.2082 3.875 17.1015 3.875 20.6665V29.7082H27.125V20.6665C27.125 17.1015 24.2317 14.2082 20.6667 14.2082ZM14.2083 3.87484H16.7917V14.2082H14.2083V3.87484ZM24.5417 27.1248H21.9583V23.2498C21.9583 22.5394 21.3771 21.9582 20.6667 21.9582C19.9562 21.9582 19.375 22.5394 19.375 23.2498V27.1248H16.7917V23.2498C16.7917 22.5394 16.2104 21.9582 15.5 21.9582C14.7896 21.9582 14.2083 22.5394 14.2083 23.2498V27.1248H11.625V23.2498C11.625 22.5394 11.0437 21.9582 10.3333 21.9582C9.62292 21.9582 9.04167 22.5394 9.04167 23.2498V27.1248H6.45833V20.6665C6.45833 18.5353 8.20208 16.7915 10.3333 16.7915H20.6667C22.7979 16.7915 24.5417 18.5353 24.5417 20.6665V27.1248Z" fill="#22262B"/>
</svg>
