<svg width="27" height="27" viewBox="0 0 27 27" fill="none" xmlns="http://www.w3.org/2000/svg">
<path d="M22.14 7.56004H19.44V1.5763C19.44 1.0039 18.9567 0.540039 18.36 0.540039C17.7633 0.540039 17.28 1.0039 17.28 1.5763V7.56004H8.63999V1.5763C8.63999 1.0039 8.15669 0.540039 7.55945 0.540039C6.96275 0.540039 6.47999 1.0039 6.47999 1.5763V7.56004H3.77999C3.48137 7.56004 3.23999 8.0293 3.23999 8.3155V10.908C3.23999 14.0179 8.63999 17.6289 8.63999 22.6239V24.3H10.8V26.46H15.12V24.3H17.28V22.6239C17.28 17.6289 22.68 14.0174 22.68 10.908V8.3155C22.68 8.0293 22.4386 7.56004 22.14 7.56004ZM12.3698 16.4096C12.4049 16.2962 12.3336 16.2 12.2099 16.2H10.112C9.98783 16.2 9.95273 16.1298 10.0316 16.0386C10.0316 16.0386 14.3543 10.5527 14.4385 10.4469C14.5022 10.3464 14.5724 10.3815 14.5503 10.4971C14.5168 10.6434 13.5939 14.3862 13.5939 14.3862C13.5491 14.4963 13.6139 14.58 13.7365 14.58H15.8355C15.9591 14.58 15.9986 14.6632 15.923 14.7572C15.923 14.7572 11.5938 20.3742 11.516 20.4682C11.4377 20.5622 11.3654 20.5335 11.4048 20.3737L12.3698 16.4096Z" fill="black"/>
</svg>
