<svg width="35" height="31" viewBox="0 0 35 31" fill="none" xmlns="http://www.w3.org/2000/svg">
<g clip-path="url(#clip0_1146_9762)">
<path d="M19.8759 25.1875C14.409 25.1875 9.6348 21.8713 6.97759 19.0341L1.67108 23.0332C0.934017 23.5891 -0.166417 22.9969 0.0219511 22.1456L1.49122 15.5L0.0213434 8.85377C-0.167025 8.00248 0.933409 7.41094 1.67048 7.96615L6.97698 11.9653C9.63419 9.12865 14.409 5.8125 19.8759 5.8125C28.2285 5.8125 35.0001 13.5625 35.0001 15.5C35.0001 17.4375 28.2285 25.1875 19.8759 25.1875ZM25.1885 14.0469C24.3834 14.0469 23.7302 14.6978 23.7302 15.5C23.7302 16.3029 24.3834 16.9531 25.1885 16.9531C25.9943 16.9531 26.6469 16.3029 26.6469 15.5C26.6469 14.6978 25.9937 14.0469 25.1885 14.0469Z" fill="#22262B"/>
</g>
<defs>
<clipPath id="clip0_1146_9762">
<rect width="35" height="31" fill="white" transform="matrix(1 0 0 -1 0 31)"/>
</clipPath>
</defs>
</svg>
