<svg width="31" height="30" viewBox="0 0 31 30" fill="none" xmlns="http://www.w3.org/2000/svg">
<path d="M25.4297 5.76102H23.7344V3.73567C23.7344 3.36154 23.4104 3.06055 23.0078 3.06055H5.08594C4.6833 3.06055 4.35938 3.36154 4.35938 3.73567V11.387C4.35938 11.7611 4.6833 12.0621 5.08594 12.0621H23.0078C23.4104 12.0621 23.7344 11.7611 23.7344 11.387V7.56134H24.7031V13.1873H14.0771C13.4081 13.1873 12.8662 13.6908 12.8662 14.3125V18.1382H11.5342C11.401 18.1382 11.292 18.2395 11.292 18.3632V24.7769C11.292 24.8078 11.298 24.8387 11.3102 24.8641C11.298 24.9091 11.292 24.9541 11.292 25.0019C11.292 26.3071 12.4303 27.3648 13.835 27.3648C15.2396 27.3648 16.3779 26.3071 16.3779 25.0019C16.3779 24.9541 16.3719 24.9091 16.3598 24.8641C16.3719 24.8359 16.3779 24.8078 16.3779 24.7769V18.3632C16.3779 18.2395 16.2689 18.1382 16.1357 18.1382H14.8037V14.9876H25.4297C26.0987 14.9876 26.6406 14.4841 26.6406 13.8624V6.88622C26.6406 6.26455 26.0987 5.76102 25.4297 5.76102Z" fill="#22262B"/>
</svg>
