<svg width="33" height="33" viewBox="0 0 33 33" fill="none" xmlns="http://www.w3.org/2000/svg">
<path d="M26.5101 6.77895L23.5951 3.86395C22.5226 2.79145 20.7764 2.79145 19.7039 3.86395L15.8126 7.7552L18.7276 10.6702L21.6426 7.7552L26.5101 12.6227C27.2828 11.8466 27.7165 10.796 27.7165 9.70082C27.7165 8.60566 27.2828 7.55508 26.5101 6.77895ZM7.54887 18.9339C8.36012 19.7452 9.66637 19.7452 10.4639 18.9339L13.8601 15.5377L10.9451 12.6089L7.54887 16.0052C6.73762 16.8164 6.73762 18.1227 7.54887 18.9339Z" fill="#22262B"/>
<path d="M20.68 10.6699L19.7037 11.6461L18.7275 12.6224L14.355 8.24987C13.5437 7.42487 12.2375 7.42487 11.44 8.23612C11.2471 8.42668 11.0939 8.65364 10.9894 8.90383C10.8849 9.15402 10.8311 9.42247 10.8311 9.69362C10.8311 9.96477 10.8849 10.2332 10.9894 10.4834C11.0939 10.7336 11.2471 10.9606 11.44 11.1511L15.8125 15.5236L14.8362 16.4999L6.09124 25.2449C5.01874 26.3174 5.01874 28.0636 6.09124 29.1361C7.16374 30.2086 8.90999 30.2086 9.98249 29.1361L22.6187 16.4999C22.746 16.6272 22.8972 16.7282 23.0635 16.797C23.2298 16.8659 23.4081 16.9014 23.5881 16.9014C23.7681 16.9014 23.9464 16.8659 24.1127 16.797C24.2791 16.7282 24.4302 16.6272 24.5575 16.4999C24.6848 16.3726 24.7858 16.2214 24.8547 16.0551C24.9236 15.8888 24.959 15.7105 24.959 15.5305C24.959 15.3505 24.9236 15.1722 24.8547 15.0059C24.7858 14.8396 24.6848 14.6884 24.5575 14.5611L20.68 10.6699Z" fill="#22262B"/>
</svg>
