<svg width="32" height="32" viewBox="0 0 32 32" fill="none" xmlns="http://www.w3.org/2000/svg">
<path d="M27.6961 13.5398L25.8721 8.06784C25.6075 7.27115 25.0985 6.5781 24.4176 6.08718C23.7366 5.59626 22.9182 5.33242 22.0787 5.33317H18.6667V2.6665H13.3334V5.33317H9.92141C9.08193 5.33242 8.26357 5.59626 7.58259 6.08718C6.90162 6.5781 6.39268 7.27115 6.12808 8.06784L4.30408 13.5398C3.81904 13.7428 3.40483 14.0846 3.1135 14.5223C2.82218 14.96 2.66675 15.4741 2.66675 15.9998V22.6665C2.66675 23.6505 3.20541 24.5012 4.00008 24.9638V27.9998C4.00008 28.3535 4.14056 28.6926 4.39061 28.9426C4.64065 29.1927 4.97979 29.3332 5.33341 29.3332H6.66675C7.02037 29.3332 7.35951 29.1927 7.60956 28.9426C7.8596 28.6926 8.00008 28.3535 8.00008 27.9998V25.3332H24.0001V27.9998C24.0001 28.3535 24.1406 28.6926 24.3906 28.9426C24.6407 29.1927 24.9798 29.3332 25.3334 29.3332H26.6667C27.0204 29.3332 27.3595 29.1927 27.6096 28.9426C27.8596 28.6926 28.0001 28.3535 28.0001 27.9998V24.9638C28.4046 24.7318 28.7408 24.3973 28.9749 23.994C29.209 23.5907 29.3326 23.1328 29.3334 22.6665V15.9998C29.3334 15.4741 29.178 14.96 28.8867 14.5223C28.5953 14.0846 28.1811 13.7428 27.6961 13.5398ZM9.92141 7.99984H22.0774C22.6521 7.99984 23.1614 8.36517 23.3427 8.91184L24.8174 13.3332H7.18275L8.65608 8.91184C8.74455 8.64623 8.91437 8.4152 9.14148 8.25151C9.36859 8.08782 9.64146 7.99977 9.92141 7.99984ZM7.33341 21.3332C7.07068 21.3331 6.81054 21.2812 6.56784 21.1806C6.32515 21.08 6.10464 20.9326 5.91892 20.7467C5.73321 20.5609 5.58591 20.3403 5.48545 20.0975C5.38499 19.8547 5.33333 19.5946 5.33341 19.3318C5.3335 19.0691 5.38534 18.809 5.48596 18.5663C5.58658 18.3236 5.73403 18.1031 5.91987 17.9173C6.10571 17.7316 6.32631 17.5843 6.56908 17.4839C6.81184 17.3834 7.07202 17.3317 7.33475 17.3318C7.86536 17.332 8.37416 17.543 8.74924 17.9183C9.12431 18.2936 9.33492 18.8026 9.33475 19.3332C9.33457 19.8638 9.12362 20.3726 8.74829 20.7477C8.37297 21.1227 7.86402 21.3333 7.33341 21.3332ZM24.6667 21.3332C24.404 21.3331 24.1439 21.2812 23.9012 21.1806C23.6585 21.08 23.438 20.9326 23.2523 20.7467C23.0665 20.5609 22.9192 20.3403 22.8188 20.0975C22.7183 19.8547 22.6667 19.5946 22.6667 19.3318C22.6668 19.0691 22.7187 18.809 22.8193 18.5663C22.9199 18.3236 23.0674 18.1031 23.2532 17.9173C23.439 17.7316 23.6596 17.5843 23.9024 17.4839C24.1452 17.3834 24.4053 17.3317 24.6681 17.3318C25.1987 17.332 25.7075 17.543 26.0826 17.9183C26.4576 18.2936 26.6683 18.8026 26.6681 19.3332C26.6679 19.8638 26.457 20.3726 26.0816 20.7477C25.7063 21.1227 25.1974 21.3333 24.6667 21.3332Z" fill="#22262B"/>
</svg>
