<svg width="39" height="31" viewBox="0 0 39 31" fill="none" xmlns="http://www.w3.org/2000/svg">
<g clip-path="url(#clip0_1146_9768)">
<path d="M25.2 1.9375C27.2959 1.9375 29 3.67217 29 5.8125V8.71875H31.8975C32.895 8.71875 33.8391 9.17285 34.4744 9.95996L37.9122 14.3133C38.31 14.7432 38.5 15.2881 38.5 15.8451V21.3125C38.5 22.3842 37.6509 23.25 36.6 23.25H36.505C36.5644 23.5648 36.6 23.8857 36.6 24.2188C36.6 26.8949 34.4744 29.0625 31.85 29.0625C29.2256 29.0625 27.1 26.8949 27.1 24.2188C27.1 23.8857 27.1356 23.5648 27.195 23.25H17.505C17.5644 23.5648 17.6 23.8857 17.6 24.2188C17.6 26.8949 15.4744 29.0625 12.85 29.0625C11.2944 29.0625 9.91687 28.2996 9.05 27.125C8.18313 28.2996 6.80562 29.0625 5.25 29.0625C2.62681 29.0625 0.5 26.8949 0.5 24.2188V5.8125C0.5 3.67217 2.20109 1.9375 4.3 1.9375H25.2ZM32.2656 11.8006C32.2204 11.7458 32.1641 11.7017 32.1005 11.6714C32.037 11.6411 31.9677 11.6253 31.8975 11.625H29V15.5H35.1809L32.2656 11.8006ZM31.85 26.1562C32.9009 26.1562 33.75 25.2904 33.75 24.2188C33.75 23.1471 32.9009 22.2812 31.85 22.2812C30.7991 22.2812 29.95 23.1471 29.95 24.2188C29.95 25.2904 30.7991 26.1562 31.85 26.1562ZM12.85 22.2812C11.7991 22.2812 10.95 23.1471 10.95 24.2188C10.95 25.2904 11.7991 26.1562 12.85 26.1562C13.9009 26.1562 14.75 25.2904 14.75 24.2188C14.75 23.1471 13.9009 22.2812 12.85 22.2812ZM5.25 26.1562C6.29916 26.1562 7.15 25.2904 7.15 24.2188C7.15 23.1471 6.29916 22.2812 5.25 22.2812C4.20084 22.2812 3.35 23.1471 3.35 24.2188C3.35 25.2904 4.20084 26.1562 5.25 26.1562Z" fill="#22262B"/>
</g>
<defs>
<clipPath id="clip0_1146_9768">
<rect width="38" height="31" fill="white" transform="translate(0.5)"/>
</clipPath>
</defs>
</svg>
