<svg width="248" height="204" viewBox="0 0 248 204" fill="none" xmlns="http://www.w3.org/2000/svg">
<g clip-path="url(#clip0_1198_12586)">
<path d="M211.302 191.485C214.786 191.879 217.81 192.103 220.794 192.605C223.047 192.985 225.09 194.017 225.361 196.643C225.631 199.263 224.075 201.054 221.869 201.998C220.212 202.71 218.304 203.124 216.498 203.158C167.142 203.986 117.78 204.638 68.4315 202.914C55.9556 202.48 43.4798 201.93 31.0175 201.211C27.8579 201.027 24.6848 200.233 21.6268 199.358C15.5648 197.627 11.7219 193.494 10.7206 187.284C9.72601 181.122 9.22535 174.865 8.66381 168.635C6.97916 149.849 5.38247 131.05 3.75195 112.251C2.57473 98.6778 1.34338 85.1181 0.213521 71.538C-0.598356 61.8195 2.28381 53.1326 8.23757 45.5451C9.73954 43.6313 11.9519 42.0771 14.1507 40.9913C15.7677 40.1904 16.1466 39.3964 16.1331 37.788C16.1128 35.2565 16.0113 32.6573 16.5187 30.2073C18.3116 21.4932 25.4967 15.7313 34.5356 15.8264C58.5807 16.0842 82.6258 16.4847 106.671 16.8104C135.608 17.2108 164.551 17.5773 193.488 17.9981C202.966 18.1338 209.962 23.5699 211.924 32.2908C212.33 34.0825 212.377 35.9827 212.384 37.8355C212.431 45.3687 212.445 52.9018 212.377 60.435C212.364 62.0503 212.702 62.79 214.495 63.0547C222.668 64.2491 228.107 71.4158 227.289 79.7498C224.163 111.572 221.017 143.395 217.884 175.218C217.769 176.399 217.702 177.579 217.594 178.76C217.154 183.654 215.584 187.997 211.302 191.485ZM116.339 188.608C144.863 188.608 173.387 188.615 201.911 188.601C207.141 188.601 211.166 185.16 211.667 180.213C213.054 166.409 214.387 152.598 215.74 138.787C217.37 122.119 219.008 105.444 220.638 88.7761C220.976 85.3217 221.349 81.8741 221.639 78.4197C222.079 73.1668 217.648 68.9659 211.484 68.9251C200.598 68.8573 189.712 68.9048 178.826 68.9048C169.713 68.9048 160.6 68.8641 151.486 68.9183C144.849 68.9523 139.322 66.6109 134.944 61.5684C132.725 59.0166 130.351 56.5938 128.267 53.9402C123.571 47.9612 117.55 45.4976 109.966 45.5383C80.6841 45.7012 51.3956 45.6062 22.1139 45.6062C21.0991 45.6062 20.0842 45.5994 19.0761 45.6741C13.5486 46.0813 9.85456 50.4994 10.3755 56.0373C10.6394 58.8198 10.8965 61.5955 11.14 64.3781C12.73 82.417 14.2996 100.456 15.8963 118.488C17.6689 138.461 19.5091 158.428 21.2344 178.407C21.8433 185.479 25.0164 188.615 32.0323 188.615C60.1368 188.608 88.2345 188.608 116.339 188.608ZM21.8839 40.2312C23.1152 40.2312 24.1098 40.2312 25.1111 40.2312C53.8786 40.2312 82.6461 40.2583 111.414 40.2176C119.214 40.204 125.696 43.0205 130.912 48.8095C133.233 51.3816 135.547 53.9606 137.779 56.6074C141.555 61.0865 146.25 63.2379 152.17 63.1972C169.382 63.0818 186.587 63.1565 203.798 63.1565C204.691 63.1565 205.591 63.1565 206.626 63.1565C206.626 53.3701 206.728 43.9095 206.532 34.4557C206.498 32.7319 205.53 30.852 204.529 29.3657C201.836 25.3616 197.777 24.14 193.115 24.0857C163.759 23.7396 134.41 23.3256 105.061 22.9252C81.5298 22.5994 57.9989 22.2397 34.4612 21.9208C27.7091 21.8325 22.7025 25.9317 21.9312 32.3179C21.6335 34.8018 21.8839 37.3536 21.8839 40.2312Z" fill="#252E38"/>
<path d="M239.535 14.1086C238.689 15.052 238.121 16.0089 237.282 16.5586C231.646 20.2505 225.942 23.8407 220.28 27.4919C218.723 28.4963 217.33 28.3199 216.335 26.82C215.314 25.293 215.814 23.8543 217.289 22.8973C223.148 19.09 229.014 15.2759 234.968 11.6111C235.698 11.1564 237.085 11.2989 237.945 11.679C238.601 11.9776 238.899 13.0771 239.535 14.1086Z" fill="#252E38"/>
<path d="M224.806 40.2239C223.338 40.2782 221.524 39.9864 221.328 37.6586C221.139 35.4325 222.587 34.6046 224.664 34.462C230.793 34.0413 236.923 33.5119 243.053 33.0979C245.468 32.935 247.2 34.1227 247.071 35.8601C246.902 38.0454 245.421 38.663 243.384 38.7919C237.336 39.1788 231.294 39.7149 224.806 40.2239Z" fill="#252E38"/>
<path d="M205.862 16.7627C206.944 14.2652 207.668 12.1817 208.717 10.2814C210.259 7.4853 212.025 4.81815 213.723 2.11027C214.786 0.433969 216.565 -0.631536 218.182 0.413609C220.016 1.59449 219.028 3.33866 218.04 5.03532C215.773 8.95122 213.764 13.0096 211.775 17.0748C211.01 18.6358 210.002 19.7488 208.304 19.104C207.33 18.7308 206.647 17.5499 205.862 16.7627Z" fill="#252E38"/>
<path d="M21.8838 40.2307C21.8838 37.3599 21.6335 34.8014 21.9312 32.3107C22.6957 25.9244 27.7091 21.8253 34.4612 21.9135C57.9921 22.2257 81.523 22.5922 105.061 22.9179C134.41 23.3251 163.766 23.7323 193.115 24.0784C197.777 24.1327 201.843 25.3543 204.529 29.3585C205.53 30.8515 206.498 32.7314 206.532 34.4485C206.728 43.9023 206.626 53.3696 206.626 63.1492C205.591 63.1492 204.691 63.1492 203.798 63.1492C186.587 63.1492 169.382 63.0746 152.17 63.1899C146.243 63.2306 141.554 61.0793 137.779 56.6001C135.547 53.9533 133.226 51.3744 130.912 48.8022C125.703 43.0132 119.214 40.1967 111.414 40.2103C82.6461 40.251 53.8786 40.2307 25.1111 40.2307C24.1097 40.2307 23.1152 40.2307 21.8838 40.2307Z" fill="white"/>
<path d="M112.476 140.097C128.754 140.334 141.284 145.309 151.777 155.367C153.09 156.622 154.057 157.959 152.934 159.805C151.798 161.678 149.653 161.59 147.61 159.581C141.9 153.955 135.242 149.903 127.489 147.888C109.323 143.171 93.4846 147.379 80.1428 160.701C78.7829 162.058 77.5312 163.538 75.4136 162.052C73.5666 160.755 73.4989 159.052 75.2918 157.124C82.8829 148.974 92.0841 143.605 102.984 141.359C106.684 140.599 110.487 140.355 112.476 140.097Z" fill="#252E38"/>
<path d="M66.6453 106.401C69.7169 109.442 72.4909 112.156 75.2309 114.912C77.0035 116.697 77.2133 118.454 75.9007 119.791C74.6491 121.06 72.7885 120.843 71.0227 119.079C68.2759 116.337 65.5967 113.534 62.5927 110.446C59.5482 113.561 56.6795 116.493 53.8109 119.418C53.2223 120.022 52.6472 120.653 52.0113 121.203C50.604 122.404 49.0276 122.614 47.7151 121.237C46.4161 119.873 46.6055 118.271 47.9113 116.934C50.8611 113.914 53.865 110.948 56.8419 107.949C57.3088 107.48 57.7418 106.978 58.3371 106.347C54.9408 102.947 51.5038 99.7095 48.351 96.2076C47.5189 95.2846 47.025 93.3911 47.3565 92.2171C47.9248 90.1946 50.4958 90.1403 52.336 91.9727C55.685 95.305 58.9663 98.7051 62.5183 102.322C66.0229 98.7865 69.3854 95.4 72.7479 92.0135C73.3433 91.4162 73.871 90.4593 74.5679 90.31C75.8195 90.0453 77.4568 89.801 78.4243 90.3982C79.8857 91.3008 79.8586 93.0586 78.6746 94.3888C77.0441 96.2144 75.2783 97.9178 73.5395 99.6417C71.3272 101.841 69.0877 104.005 66.6453 106.401Z" fill="#252E38"/>
<path d="M158.327 97.3613C161.073 94.5449 163.523 91.9795 166.033 89.4684C167.819 87.6835 169.612 87.4664 170.857 88.8984C172.453 90.7308 171.668 92.3052 170.166 93.7576C167.616 96.2211 165.079 98.6983 162.352 101.352C165.884 104.874 169.307 108.118 172.487 111.586C173.306 112.482 173.86 114.192 173.63 115.346C173.197 117.504 170.43 117.782 168.549 115.923C165.18 112.604 161.892 109.197 158.171 105.424C155.465 108.261 152.873 110.982 150.275 113.69C149.694 114.301 149.105 114.912 148.469 115.468C147.062 116.703 145.539 116.887 144.193 115.495C142.847 114.097 143.063 112.55 144.369 111.213C146.906 108.607 149.464 106.028 152.068 103.49C152.725 102.852 153.577 102.411 154.484 101.779C150.756 98.0603 147.522 94.8502 144.308 91.6198C142.36 89.6652 142.082 87.9482 143.442 86.5705C144.809 85.1861 146.541 85.4439 148.483 87.3849C151.696 90.6154 154.883 93.873 158.327 97.3613Z" fill="#252E38"/>
</g>
<defs>
<clipPath id="clip0_1198_12586">
<rect width="247" height="204" fill="white" transform="translate(0.078125)"/>
</clipPath>
</defs>
</svg>
