<svg width="19" height="19" viewBox="0 0 19 19" fill="none" xmlns="http://www.w3.org/2000/svg">
<path d="M6.21594 9.43996C6.95327 10.9626 8.18451 12.1907 9.70905 12.9241C9.82151 12.9774 9.94589 13.0004 10.07 12.991C10.194 12.9816 10.3135 12.94 10.4166 12.8704L12.6558 11.3746C12.7547 11.3075 12.869 11.2666 12.9881 11.2556C13.1071 11.2446 13.227 11.264 13.3365 11.3119L17.5282 13.1122C17.6715 13.1718 17.7912 13.2769 17.8689 13.4112C17.9466 13.5456 17.9779 13.7017 17.9582 13.8556C17.8253 14.8926 17.3192 15.8456 16.5344 16.5363C15.7497 17.2271 14.7402 17.6082 13.6948 17.6085C10.4641 17.6085 7.36584 16.3251 5.08144 14.0407C2.79704 11.7563 1.51367 8.65799 1.51367 5.42736C1.51391 4.38193 1.89506 3.37241 2.58581 2.58769C3.27656 1.80297 4.22958 1.29683 5.26653 1.16397C5.42044 1.1442 5.57658 1.17557 5.71091 1.25326C5.84524 1.33094 5.95031 1.45063 6.00993 1.59389L7.81023 5.79458C7.85705 5.90237 7.87663 6.02002 7.86726 6.13717C7.85789 6.25431 7.81985 6.36736 7.75649 6.46633L6.26072 8.74133C6.19413 8.84423 6.15504 8.96249 6.1472 9.0848C6.13936 9.20712 6.16303 9.3294 6.21594 9.43996V9.43996Z" stroke="#141414" stroke-width="1.2" stroke-linecap="round" stroke-linejoin="round"/>
</svg>
