<svg width="27" height="27" viewBox="0 0 27 27" fill="none" xmlns="http://www.w3.org/2000/svg">
<path d="M8.1517 21.4203L4.87905 24.156C4.76096 24.2537 4.61759 24.3159 4.46556 24.3354C4.31353 24.355 4.15908 24.331 4.02013 24.2663C3.88118 24.2016 3.76343 24.0988 3.68052 23.9699C3.59762 23.841 3.55297 23.6912 3.55176 23.5379V7.44826C3.55176 7.23328 3.63716 7.02711 3.78917 6.8751C3.94118 6.72309 4.14735 6.6377 4.36232 6.6377H22.1947C22.4097 6.6377 22.6158 6.72309 22.7678 6.8751C22.9199 7.02711 23.0052 7.23328 23.0052 7.44826V20.4173C23.0052 20.6322 22.9199 20.8384 22.7678 20.9904C22.6158 21.1424 22.4097 21.2278 22.1947 21.2278H8.66843C8.47866 21.2279 8.29524 21.2962 8.1517 21.4203V21.4203Z" stroke="white" stroke-width="1.2" stroke-linecap="round" stroke-linejoin="round"/>
<path d="M13.2788 15.1485C13.9503 15.1485 14.4947 14.6041 14.4947 13.9326C14.4947 13.2611 13.9503 12.7168 13.2788 12.7168C12.6073 12.7168 12.063 13.2611 12.063 13.9326C12.063 14.6041 12.6073 15.1485 13.2788 15.1485Z" fill="white"/>
<path d="M8.41555 15.1485C9.08704 15.1485 9.63139 14.6041 9.63139 13.9326C9.63139 13.2611 9.08704 12.7168 8.41555 12.7168C7.74406 12.7168 7.19971 13.2611 7.19971 13.9326C7.19971 14.6041 7.74406 15.1485 8.41555 15.1485Z" fill="white"/>
<path d="M18.1421 15.1485C18.8136 15.1485 19.358 14.6041 19.358 13.9326C19.358 13.2611 18.8136 12.7168 18.1421 12.7168C17.4706 12.7168 16.9263 13.2611 16.9263 13.9326C16.9263 14.6041 17.4706 15.1485 18.1421 15.1485Z" fill="white"/>
</svg>
