<svg width="34" height="24" viewBox="0 0 34 24" fill="none" xmlns="http://www.w3.org/2000/svg">
<path d="M32.8415 8.28913C32.0885 9.84947 30.7635 10.5416 29.1802 10.8649C26.7698 11.3574 24.3626 11.8713 21.952 12.3664C21.7341 12.411 21.5958 12.5061 21.4773 12.6962C19.5201 15.8388 17.5659 18.9835 15.5866 22.1118C15.288 22.5839 14.9181 23.0389 14.4955 23.3943C13.4914 24.2385 12.3313 23.8238 11.6918 22.9418C11.5849 22.7939 11.5773 22.4959 11.6394 22.3052C12.0008 21.1932 12.3977 20.0926 12.7812 18.9878C13.3574 17.3265 13.9319 15.6651 14.5285 13.943C14.3829 13.9694 14.2816 13.985 14.1813 14.006C11.0586 14.657 7.93562 15.3089 4.81279 15.9603C4.15039 16.0984 3.97661 15.9816 3.85147 15.3139C3.69768 14.494 3.54188 13.675 3.39181 12.8547C3.29763 12.3405 3.44426 12.12 3.94089 12.0116C4.1785 11.9599 4.41664 11.9115 4.65414 11.8602C4.67025 11.8568 4.68362 11.8388 4.7218 11.8095C4.64006 11.7439 4.56678 11.6803 4.48937 11.6226C3.40455 10.8099 2.31803 9.9987 1.23384 9.18528C0.737961 8.81341 0.715049 8.53741 1.13734 8.06995C1.71666 7.42916 2.2961 6.78794 2.87722 6.14898C3.21558 5.77652 3.39777 5.74388 3.83533 5.98028C5.44286 6.84896 7.04805 7.72167 8.65845 8.58415C8.7818 8.65036 8.94935 8.69749 9.08113 8.67089C10.2127 8.44299 11.3409 8.19584 12.4698 7.95345C12.5081 7.94537 12.5443 7.92614 12.6061 7.90265C12.5267 7.80576 12.4601 7.72032 12.3897 7.63948C10.9346 5.96532 9.47892 4.29192 8.02331 2.61809C7.61718 2.15127 7.5936 1.89444 7.90592 1.33918C8.55552 0.183646 9.63208 -0.136525 10.8383 0.570984C11.7412 1.10082 12.5832 1.73962 13.4396 2.34923C15.3097 3.68036 17.1724 5.02208 19.0336 6.36576C19.2041 6.48869 19.3599 6.51958 19.565 6.47598C22.398 5.87314 25.2343 5.28447 28.0662 4.67721C29.23 4.42774 30.3652 4.4573 31.4401 4.97778C32.4408 5.46209 32.9902 6.28145 32.9934 7.44758C32.9936 7.48679 33.0101 7.52584 33.0189 7.56485C32.9601 7.80606 32.9008 8.0476 32.8415 8.28913ZM22.4739 11.1275C22.5602 11.1197 22.5902 11.1201 22.6191 11.1139C24.819 10.6508 27.0202 10.1932 29.2183 9.72049C30.1113 9.52842 30.9073 9.13845 31.5021 8.39276C32.1745 7.55006 31.9709 6.51437 31.031 6.03485C30.1442 5.5822 29.214 5.58042 28.2555 5.78173C21.9037 7.11655 15.5488 8.44188 9.19618 9.7765C8.88092 9.8428 8.61232 9.81047 8.32731 9.65666C6.79998 8.8307 5.26563 8.01869 3.72958 7.20993C3.6441 7.16499 3.47312 7.14466 3.42283 7.19588C3.00771 7.6195 2.61162 8.06254 2.19019 8.521C2.31487 8.6184 2.4149 8.69916 2.51769 8.77598C3.76443 9.70992 5.01084 10.6452 6.26012 11.576C6.48474 11.7436 6.66284 11.9342 6.59653 12.2427C6.5298 12.551 6.29018 12.6548 6.01412 12.7095C5.52006 12.8075 5.02756 12.9154 4.50541 13.0254C4.62103 13.6332 4.7315 14.2144 4.84544 14.8126C4.95083 14.7966 5.0291 14.7887 5.10622 14.7726C8.29854 14.1087 11.4903 13.4415 14.6841 12.7845C14.8978 12.7407 14.9851 12.6355 15.0469 12.4369C15.1881 11.9824 15.3456 11.5329 15.5106 11.086C15.6336 10.7533 15.926 10.5916 16.2021 10.6796C16.5023 10.775 16.6338 11.0675 16.5398 11.4304C16.5266 11.4806 16.5121 11.5305 16.4952 11.5793C16.1195 12.6648 15.7438 13.7508 15.3677 14.8362C14.5279 17.2619 13.6873 19.687 12.8501 22.1133C12.7083 22.5244 12.8032 22.6937 13.2335 22.7312C13.3992 22.7456 13.6297 22.7046 13.7371 22.5941C14.1057 22.2157 14.4872 21.8304 14.7671 21.3851C17.2194 17.4825 19.6504 13.5659 22.0888 9.65388C22.3265 9.27238 22.6371 9.16485 22.9226 9.35333C23.2212 9.55055 23.2546 9.85677 23.0161 10.2487C22.8464 10.5285 22.6727 10.806 22.4739 11.1275ZM17.7832 6.84361C17.6689 6.75152 17.6169 6.70559 17.5608 6.66511C15.3585 5.0889 13.1581 3.50995 10.9507 1.9417C10.6728 1.74449 10.3678 1.57702 10.0562 1.44157C9.71066 1.29131 9.351 1.2532 9.04461 1.57409C8.87783 1.74871 8.81734 1.88539 9.01729 2.11136C10.486 3.77043 11.9549 5.43004 13.3843 7.12505C13.7371 7.54379 14.0451 7.66963 14.5786 7.53023C15.6143 7.25944 16.6707 7.07619 17.7832 6.84361Z" fill="#FEBA45"/>
</svg>
