<svg width="23" height="21" viewBox="0 0 23 21" fill="none" xmlns="http://www.w3.org/2000/svg">
<path d="M0 18.7221C0 13.7025 0 8.68289 0 3.66272C0.178917 3.27882 0.484193 3.16421 0.899615 3.16755C2.75923 3.18201 4.61828 3.17423 6.4779 3.17423C6.56344 3.17423 6.64843 3.17423 6.7418 3.17423C6.7418 2.93165 6.73677 2.72412 6.74292 2.5177C6.7759 1.38437 7.5978 0.53089 8.73616 0.516424C10.5281 0.493056 12.3212 0.496395 14.1137 0.515311C15.1805 0.526439 15.9672 1.2564 16.093 2.31129C16.1265 2.59226 16.098 2.88046 16.098 3.17423C16.2389 3.17423 16.3272 3.17423 16.4161 3.17423C18.3054 3.17423 20.1946 3.17367 22.0839 3.17478C22.6027 3.17478 22.8566 3.41959 22.8566 3.93256C22.8583 8.76579 22.8611 13.599 22.8488 18.4317C22.8482 18.7399 22.7783 19.0732 22.6469 19.3514C22.2706 20.1481 21.5935 20.4992 20.7213 20.4992C16.6677 20.4992 12.6142 20.4992 8.5606 20.4992C6.41863 20.4992 4.2761 20.4981 2.13414 20.4997C1.42071 20.5003 0.807361 20.2666 0.40368 19.6691C0.213582 19.3903 0.130833 19.0404 0 18.7221ZM8.08032 12.503C6.84803 12.503 5.65041 12.5035 4.45334 12.503C3.39885 12.5024 2.69717 11.9983 2.36338 11.0024C2.06257 10.105 1.76289 9.20755 1.46208 8.31012C1.43525 8.22945 1.40338 8.151 1.37374 8.07143C1.362 8.07366 1.35026 8.07533 1.33852 8.07756C1.33852 8.14877 1.33852 8.21943 1.33852 8.29065C1.33852 11.6367 1.33852 14.9822 1.33852 18.3282C1.33852 18.9358 1.57391 19.1667 2.19229 19.1667C8.35149 19.1667 14.5107 19.1667 20.6699 19.1667C21.2827 19.1667 21.5164 18.933 21.5164 18.321C21.5164 14.9827 21.5164 11.6439 21.5164 8.30567C21.5164 8.22945 21.5164 8.15378 21.5164 8.07756C21.4594 8.12763 21.4398 8.18048 21.4219 8.23445C21.111 9.1597 20.8007 10.085 20.4899 11.0096C20.1589 11.9939 19.4549 12.5018 18.4167 12.503C17.2861 12.5041 16.155 12.503 15.0245 12.503C14.9457 12.503 14.8674 12.503 14.7752 12.503C14.7752 12.7311 14.7779 12.9303 14.7746 13.1289C14.7668 13.5517 14.4984 13.8327 14.0791 13.8338C12.3089 13.8377 10.5382 13.8377 8.76803 13.8333C8.35987 13.8321 8.09038 13.5523 8.08032 13.1439C8.0764 12.938 8.08032 12.7327 8.08032 12.503ZM14.7757 11.1704C14.8797 11.1704 14.9597 11.1704 15.0396 11.1704C16.1405 11.1704 17.2414 11.1704 18.3423 11.1704C18.8925 11.1704 19.0675 11.0447 19.2402 10.5301C19.8603 8.67955 20.4809 6.82905 21.101 4.97855C21.1513 4.82777 21.1983 4.67588 21.248 4.52065C14.6902 4.52065 8.15692 4.52065 1.60689 4.52065C1.62311 4.57128 1.63317 4.60578 1.64435 4.64027C2.31361 6.63821 2.98176 8.63616 3.65381 10.6335C3.78576 11.0263 3.99822 11.1699 4.42315 11.1704C5.57605 11.1721 6.72894 11.171 7.88183 11.1704C7.94557 11.1704 8.00875 11.1621 8.08032 11.1571C8.08032 10.9295 8.07528 10.7226 8.08144 10.5161C8.09318 10.1217 8.36435 9.84237 8.76076 9.84126C10.5387 9.83626 12.3162 9.83626 14.0941 9.84126C14.4911 9.84237 14.7623 10.1206 14.7746 10.515C14.7807 10.7209 14.7757 10.9279 14.7757 11.1704ZM14.7763 3.16365C14.7763 2.96725 14.7768 2.79756 14.7763 2.62731C14.7746 2.09375 14.5213 1.84226 13.9823 1.84171C12.9345 1.8406 11.8868 1.84171 10.8384 1.84171C10.1546 1.84171 9.47083 1.83893 8.78704 1.84282C8.44598 1.84449 8.17984 2.01418 8.12113 2.32019C8.06858 2.5956 8.08367 2.88435 8.06969 3.16365C10.3291 3.16365 12.5415 3.16365 14.7763 3.16365ZM9.42443 12.4902C10.7685 12.4902 12.0942 12.4902 13.4221 12.4902C13.4221 12.0456 13.4221 11.6139 13.4221 11.1871C12.0808 11.1871 10.7551 11.1871 9.42443 11.1871C9.42443 11.625 9.42443 12.0462 9.42443 12.4902Z" fill="#FEBA45"/>
</svg>
