<svg width="18" height="20" viewBox="0 0 18 20" fill="none" xmlns="http://www.w3.org/2000/svg">
<path fill-rule="evenodd" clip-rule="evenodd" d="M6.19421 8.57677C6.19421 7.04782 7.45164 5.77686 8.99343 5.77686C10.5362 5.77686 11.8058 7.04782 11.8058 8.57677C11.8058 10.1177 10.5362 11.3297 8.99343 11.3297C7.45164 11.3297 6.19421 10.1177 6.19421 8.57677ZM0.5 8.31776C0.5 10.6357 1.34198 12.7876 2.7305 14.6116C4.24809 16.6235 6.13474 18.3765 8.27045 19.7524C8.80387 20.0944 9.24251 20.0704 9.72854 19.7524C11.8522 18.3765 13.7388 16.6235 15.2695 14.6116C16.657 12.7876 17.5 10.6357 17.5 8.31776C17.5 3.71789 13.6561 0 8.99345 0C4.34388 0 0.5 3.71789 0.5 8.31776Z" fill="#FDBB12"/>
</svg>
