<svg width="23" height="23" viewBox="0 0 23 23" fill="none" xmlns="http://www.w3.org/2000/svg">
<path d="M0 13.5658C0.0849506 13.3846 0.146272 13.1871 0.259915 13.0257C0.531082 12.6403 0.930518 12.4963 1.39015 12.4963C2.25091 12.4968 3.11167 12.4979 3.97299 12.4957C4.38255 12.4946 4.75892 12.5767 5.06047 12.8828C5.09366 12.9165 5.17805 12.9441 5.2118 12.9255C5.88466 12.5553 6.62502 12.2673 7.08972 11.6163C7.34232 11.2619 7.55723 10.8675 7.71869 10.463C8.04893 9.63768 8.33078 8.79378 8.63402 7.95776C8.79098 7.52512 8.96875 7.43285 9.40363 7.56956C9.6883 7.65902 9.97803 7.74115 10.2492 7.86268C10.8022 8.11022 11.2095 8.52092 11.461 9.07227C11.5291 9.22079 11.6118 9.25961 11.7642 9.25793C12.5131 9.25061 13.2669 9.3125 14.0084 9.23992C14.8922 9.15328 15.5775 9.38957 16.1085 10.1125C16.3099 10.3865 16.5811 10.6093 16.8551 10.8912C17.1026 10.6324 17.3265 10.3944 17.555 10.1609C17.78 9.93079 18.0135 9.70857 18.2362 9.47621C18.3859 9.32037 18.5575 9.25061 18.7752 9.2523C19.6883 9.25849 20.6019 9.25567 21.515 9.25455C21.942 9.25399 22.0995 9.09702 22.0995 8.67113C22.1001 6.27558 22.1001 3.88003 22.0995 1.48448C22.0995 1.05803 21.942 0.900497 21.5156 0.899934C15.6467 0.899372 9.77775 0.899372 3.90829 0.899934C3.48129 0.899934 3.32376 1.05746 3.32376 1.48335C3.3232 3.8789 3.3232 6.27446 3.32376 8.67001C3.32376 9.09702 3.48129 9.25286 3.90716 9.25455C4.11701 9.25567 4.32629 9.25005 4.53614 9.25624C4.82756 9.26524 5.02727 9.45146 5.02671 9.70407C5.02671 9.95667 4.82699 10.1435 4.53557 10.1513C4.30379 10.1581 4.07144 10.1553 3.83965 10.1525C2.99915 10.1429 2.43037 9.57804 2.427 8.73752C2.42194 7.44973 2.42587 6.1625 2.42531 4.87471C2.42531 3.74444 2.42419 2.61362 2.42587 1.48335C2.427 0.558436 2.98283 0.00146168 3.90716 0.00146168C9.77663 -0.000226122 15.6455 -0.000226122 21.5144 0.000336478C22.4405 0.000336478 22.998 0.556186 22.998 1.48054C22.9991 3.87609 22.9991 6.27164 22.998 8.66719C22.9974 9.5938 22.4421 10.1508 21.5189 10.1519C20.688 10.153 19.8571 10.1468 19.0261 10.1581C18.9153 10.1598 18.7803 10.2172 18.6998 10.2942C18.2306 10.746 17.7744 11.2107 17.3136 11.6715C16.9462 12.0383 16.7538 12.04 16.3926 11.6794C15.9268 11.2135 15.4638 10.7449 14.9918 10.2852C14.9249 10.22 14.8174 10.1592 14.728 10.1586C13.7626 10.1496 12.7966 10.153 11.8312 10.1536C11.8025 10.1536 11.7738 10.1592 11.8059 10.1558C11.5718 10.9485 11.3468 11.7109 11.1145 12.4974C11.1915 12.4974 11.2709 12.4974 11.3496 12.4974C12.4202 12.4974 13.4908 12.4957 14.5609 12.4979C15.2883 12.4996 15.8548 12.7894 16.1749 13.4628C16.4112 13.9585 16.3775 14.462 16.1316 14.9503C17.6545 15.5124 17.6731 17.4989 16.2109 18.12C16.4495 18.5774 16.5052 19.0528 16.315 19.5423C16.1277 20.0238 15.7761 20.3395 15.2804 20.5257C15.4846 20.9167 15.5561 21.3156 15.4475 21.7291C15.2765 22.3789 14.8573 22.7862 14.2076 22.9567C14.1575 22.9696 14.108 22.9854 14.0585 23C11.8126 23 9.56678 23 7.32038 23C6.62502 22.906 5.95273 22.7277 5.3035 22.4599C5.26581 22.4442 5.18311 22.4695 5.15723 22.5032C4.94176 22.7856 4.64078 22.9162 4.31054 22.9994C3.23262 22.9994 2.15414 22.9994 1.07623 22.9994C0.958085 22.955 0.837129 22.9173 0.722924 22.8644C0.320674 22.6765 0.119831 22.3288 0 21.9209C0 19.1361 0 16.3506 0 13.5658ZM9.38788 8.52317C9.10265 9.30856 8.81911 10.0799 8.54175 10.8535C8.22389 11.7401 7.6945 12.4704 6.91025 12.993C6.50069 13.2659 6.05962 13.4932 5.62474 13.725C5.47847 13.8032 5.43121 13.8904 5.43121 14.0541C5.43684 16.4721 5.43515 18.8902 5.43515 21.3083C5.43515 21.346 5.42333 21.3887 5.43796 21.4191C5.46609 21.4776 5.49703 21.5569 5.54823 21.5789C6.28803 21.9024 7.05371 22.1094 7.87059 22.1032C8.96369 22.0948 10.0562 22.101 11.1493 22.101C12.0101 22.101 12.8709 22.1021 13.7322 22.0998C13.8357 22.0993 13.9431 22.0942 14.0427 22.0678C14.4045 21.9721 14.6323 21.6374 14.5946 21.2739C14.5575 20.9173 14.2796 20.6275 13.915 20.614C13.3918 20.5943 12.8675 20.6078 12.3437 20.5999C12.0039 20.5949 11.8115 20.4272 11.8098 20.1532C11.8081 19.8776 12.0011 19.7127 12.3381 19.7037C12.4579 19.7003 12.5777 19.7032 12.6976 19.7032C13.3491 19.7032 14.0005 19.7144 14.6514 19.6964C14.8444 19.6908 15.0565 19.6402 15.2219 19.5451C15.4931 19.3892 15.5887 19.0393 15.4981 18.7344C15.4025 18.4126 15.1206 18.2021 14.751 18.1999C13.9803 18.1943 13.209 18.1982 12.4377 18.1976C12.3628 18.1976 12.2875 18.2005 12.2132 18.1915C11.982 18.1633 11.8239 17.9985 11.8109 17.7796C11.798 17.5512 11.9246 17.3785 12.1569 17.3245C12.243 17.3042 12.3347 17.3003 12.4236 17.2997C13.479 17.298 14.5344 17.2969 15.5898 17.2997C15.8357 17.3003 16.0495 17.2317 16.2104 17.0426C16.4129 16.8052 16.4602 16.5318 16.3313 16.2471C16.1991 15.954 15.9595 15.8049 15.636 15.8049C14.5732 15.8032 13.51 15.8049 12.4472 15.8021C12.3358 15.8015 12.2216 15.7942 12.1147 15.7661C11.919 15.7149 11.7969 15.5287 11.8115 15.3228C11.8267 15.1112 11.9432 14.9751 12.1451 14.9227C12.2306 14.9008 12.3235 14.9053 12.4129 14.9053C13.1167 14.9042 13.8205 14.9059 14.5237 14.9031C14.6351 14.9025 14.7493 14.8969 14.8579 14.8727C15.2438 14.7883 15.488 14.4164 15.4222 14.0288C15.3535 13.6265 15.0492 13.3959 14.5727 13.3953C13.2478 13.3936 11.9229 13.3953 10.5974 13.3942C10.0939 13.3936 9.91728 13.1489 10.0765 12.674C10.2886 12.0434 10.5091 11.4161 10.7133 10.7831C11.0554 9.72376 10.4624 8.70545 9.38788 8.52317ZM2.26835 13.3953C1.94486 13.3953 1.66132 13.3913 1.37834 13.3964C1.04247 13.402 0.899576 13.5444 0.899576 13.8791C0.898451 16.462 0.897888 19.0449 0.899576 21.6278C0.899576 21.9536 1.04191 22.0987 1.36315 22.0998C2.26891 22.1027 3.17468 22.1032 4.08044 22.0998C4.3893 22.0987 4.53501 21.9524 4.53557 21.6424C4.53726 19.0444 4.53726 16.4468 4.53557 13.8487C4.53557 13.5528 4.39324 13.4071 4.09732 13.397C3.87285 13.3897 3.64669 13.4099 3.4239 13.3908C3.21293 13.3728 3.16174 13.4493 3.16286 13.653C3.17018 15.3374 3.16736 17.0218 3.16624 18.7062C3.16624 18.8103 3.16342 18.9166 3.14486 19.019C3.1066 19.2311 2.92826 19.3712 2.71561 19.3701C2.50182 19.369 2.32742 19.2283 2.28973 19.0145C2.27172 18.9121 2.26891 18.8064 2.26891 18.7017C2.26779 17.0398 2.26835 15.3779 2.26779 13.7154C2.26835 13.6198 2.26835 13.5236 2.26835 13.3953Z" fill="#FEBA45"/>
<path d="M18.5593 2.64124C18.8586 2.64012 19.0735 2.78245 19.2119 3.04013C19.3149 3.23085 19.3959 3.43395 19.5073 3.61904C19.5489 3.6888 19.6428 3.75013 19.7233 3.76869C19.9191 3.81426 20.1216 3.83114 20.3213 3.86265C20.6184 3.90934 20.8338 4.06293 20.9334 4.3538C21.0308 4.63904 20.9503 4.88545 20.75 5.09643C20.6111 5.24327 20.4693 5.38842 20.3168 5.52063C20.2122 5.61121 20.1886 5.70685 20.2133 5.83569C20.2549 6.05566 20.2999 6.27733 20.3174 6.50012C20.3601 7.05597 19.8426 7.42953 19.3267 7.21518C19.127 7.13248 18.9346 7.0284 18.7495 6.91644C18.6173 6.83655 18.5098 6.84555 18.3821 6.9215C18.2088 7.02446 18.0277 7.11448 17.8459 7.20281C17.5782 7.33333 17.3166 7.30295 17.0853 7.1246C16.8609 6.95132 16.741 6.69759 16.8288 6.42979C17.0116 5.87057 16.8839 5.45143 16.4029 5.10262C16.1616 4.92765 16.1059 4.64129 16.206 4.34986C16.3056 4.05899 16.525 3.90934 16.822 3.86321C16.9846 3.83789 17.1478 3.79345 17.3098 3.79457C17.5292 3.79626 17.6237 3.67924 17.6997 3.49864C17.7779 3.31355 17.8724 3.13352 17.9765 2.96136C18.1059 2.74645 18.3095 2.64687 18.5593 2.64124ZM18.6026 3.78838C18.4277 4.03874 18.309 4.32454 18.0952 4.48207C17.887 4.63566 17.5821 4.65816 17.2744 4.75212C17.851 5.10037 17.9703 5.59827 17.7829 6.22276C18.323 5.80249 18.8338 5.84131 19.3677 6.21938C19.1438 5.58533 19.3087 5.10149 19.8555 4.7088C19.1737 4.7223 18.7624 4.40724 18.6026 3.78838Z" fill="#FEBA45"/>
<path d="M5.38827 6.46669C5.41415 6.30522 5.43496 6.0723 5.49291 5.84951C5.53398 5.69142 5.48447 5.59859 5.37364 5.50183C5.23862 5.38424 5.11373 5.25428 4.98602 5.12826C4.76492 4.91053 4.67547 4.64949 4.77449 4.35187C4.8735 4.05426 5.10247 3.86691 5.41077 3.86747C5.96379 3.86804 6.30191 3.63681 6.47181 3.10234C6.56689 2.80416 6.81555 2.63932 7.14635 2.641C7.46815 2.64269 7.71231 2.80585 7.80401 3.0939C7.97729 3.63737 8.32497 3.86579 8.88306 3.86804C9.18179 3.86916 9.40345 4.05538 9.5019 4.34343C9.59923 4.62923 9.52778 4.88859 9.31512 5.10519C9.21554 5.20646 9.12328 5.32011 9.00795 5.4C8.77673 5.5609 8.74016 5.76287 8.81329 6.01829C8.8583 6.17526 8.88362 6.34066 8.89149 6.50382C8.91962 7.07542 8.40148 7.43211 7.8749 7.20313C7.68362 7.11986 7.49853 7.02028 7.31794 6.91508C7.19642 6.84419 7.09741 6.83181 6.97026 6.91058C6.78686 7.02422 6.59277 7.12493 6.39417 7.21044C5.8901 7.42873 5.37927 7.08105 5.38827 6.46669ZM7.13622 3.78139C6.94551 4.43457 6.514 4.70969 5.85296 4.71419C6.42174 5.09844 6.54101 5.59747 6.35254 6.22758C6.88644 5.79944 7.39839 5.83882 7.94016 6.21745C7.71119 5.58228 7.88615 5.10013 8.42342 4.70687C7.75451 4.72037 7.33876 4.42163 7.13622 3.78139Z" fill="#FEBA45"/>
<path d="M11.1003 6.4748C11.1295 6.29871 11.1559 6.06804 11.21 5.84357C11.2448 5.69842 11.2066 5.60559 11.0997 5.51219C10.9534 5.38448 10.8178 5.2444 10.6811 5.106C10.4679 4.89052 10.397 4.63173 10.4949 4.3448C10.5934 4.05506 10.8161 3.90653 11.1132 3.86265C11.1576 3.8559 11.2026 3.84127 11.246 3.84465C11.7394 3.87897 11.9953 3.61623 12.1478 3.17515C12.2536 2.8691 12.4702 2.65531 12.8251 2.6435C13.134 2.63281 13.354 2.77796 13.4997 3.04125C13.6291 3.2753 13.6983 3.58585 13.8924 3.72819C14.0797 3.8649 14.3948 3.81989 14.6507 3.87109C15.2409 3.98924 15.4524 4.62329 15.053 5.07787C14.9152 5.23483 14.7621 5.37942 14.6063 5.51895C14.5078 5.60727 14.4696 5.69166 14.4994 5.8295C14.55 6.06242 14.5928 6.3004 14.6024 6.53781C14.6237 7.07341 14.1191 7.42278 13.6223 7.22025C13.4294 7.14148 13.2426 7.04303 13.0654 6.93332C12.9129 6.83881 12.788 6.84556 12.6378 6.93895C12.4606 7.04866 12.2738 7.14767 12.0803 7.22531C11.5897 7.4211 11.0828 7.0571 11.1003 6.4748ZM14.1371 4.751C13.8237 4.65198 13.5244 4.62554 13.3174 4.47307C13.1115 4.32117 12.9984 4.04325 12.8218 3.78726C12.6592 4.41681 12.2401 4.71949 11.5661 4.7133C12.1343 5.09418 12.2552 5.59321 12.0724 6.21995C12.6114 5.80418 13.1233 5.83794 13.6544 6.22276C13.4395 5.5949 13.5807 5.10375 14.1371 4.751Z" fill="#FEBA45"/>
<path d="M6.93034 9.72158C6.92134 9.96237 6.70868 10.1604 6.47239 10.148C6.23104 10.1357 6.04258 9.92749 6.05158 9.68445C6.06058 9.44365 6.27324 9.24562 6.50952 9.258C6.75087 9.27037 6.9399 9.47854 6.93034 9.72158Z" fill="#FEBA45"/>
<path d="M3.15917 20.5398C3.16311 20.7868 2.97633 20.9843 2.73161 20.9905C2.48519 20.9972 2.28716 20.8121 2.27816 20.5663C2.2686 20.3137 2.46832 20.0999 2.71585 20.0988C2.95439 20.0976 3.15523 20.2979 3.15917 20.5398Z" fill="#FEBA45"/>
</svg>
